<?xml version="1.0" encoding="UTF-8" standalone="no"?>
<svg width="1465px" height="832px" viewBox="0 0 1465 832" version="1.1" xmlns="http://www.w3.org/2000/svg" xmlns:xlink="http://www.w3.org/1999/xlink">
    <!-- Generator: Sketch 42 (36781) - http://www.bohemiancoding.com/sketch -->
    <title>background</title>
    <desc>Created with Sketch.</desc>
    <defs>
        <rect id="path-1" x="0" y="0" width="184" height="577"></rect>
        <mask id="mask-2" maskContentUnits="userSpaceOnUse" maskUnits="objectBoundingBox" x="0" y="0" width="184" height="577" fill="white">
            <use xlink:href="#path-1"></use>
        </mask>
        <rect id="path-3" x="183" y="0" width="184" height="577"></rect>
        <mask id="mask-4" maskContentUnits="userSpaceOnUse" maskUnits="objectBoundingBox" x="0" y="0" width="184" height="577" fill="white">
            <use xlink:href="#path-3"></use>
        </mask>
        <rect id="path-5" x="366" y="0" width="184" height="577"></rect>
        <mask id="mask-6" maskContentUnits="userSpaceOnUse" maskUnits="objectBoundingBox" x="0" y="0" width="184" height="577" fill="white">
            <use xlink:href="#path-5"></use>
        </mask>
        <rect id="path-7" x="549" y="0" width="184" height="577"></rect>
        <mask id="mask-8" maskContentUnits="userSpaceOnUse" maskUnits="objectBoundingBox" x="0" y="0" width="184" height="577" fill="white">
            <use xlink:href="#path-7"></use>
        </mask>
        <rect id="path-9" x="732" y="0" width="184" height="577"></rect>
        <mask id="mask-10" maskContentUnits="userSpaceOnUse" maskUnits="objectBoundingBox" x="0" y="0" width="184" height="577" fill="white">
            <use xlink:href="#path-9"></use>
        </mask>
        <rect id="path-11" x="915" y="0" width="184" height="577"></rect>
        <mask id="mask-12" maskContentUnits="userSpaceOnUse" maskUnits="objectBoundingBox" x="0" y="0" width="184" height="577" fill="white">
            <use xlink:href="#path-11"></use>
        </mask>
        <rect id="path-13" x="1098" y="0" width="184" height="577"></rect>
        <mask id="mask-14" maskContentUnits="userSpaceOnUse" maskUnits="objectBoundingBox" x="0" y="0" width="184" height="577" fill="white">
            <use xlink:href="#path-13"></use>
        </mask>
        <rect id="path-15" x="1281" y="0" width="184" height="577"></rect>
        <mask id="mask-16" maskContentUnits="userSpaceOnUse" maskUnits="objectBoundingBox" x="0" y="0" width="184" height="577" fill="white">
            <use xlink:href="#path-15"></use>
        </mask>
        <rect id="path-17" x="5.68434189e-14" y="0" width="184" height="1464"></rect>
        <mask id="mask-18" maskContentUnits="userSpaceOnUse" maskUnits="objectBoundingBox" x="0" y="0" width="184" height="1464" fill="white">
            <use xlink:href="#path-17"></use>
        </mask>
        <rect id="path-19" x="183" y="0" width="184" height="1464"></rect>
        <mask id="mask-20" maskContentUnits="userSpaceOnUse" maskUnits="objectBoundingBox" x="0" y="0" width="184" height="1464" fill="white">
            <use xlink:href="#path-19"></use>
        </mask>
        <rect id="path-21" x="366" y="0" width="184" height="1464"></rect>
        <mask id="mask-22" maskContentUnits="userSpaceOnUse" maskUnits="objectBoundingBox" x="0" y="0" width="184" height="1464" fill="white">
            <use xlink:href="#path-21"></use>
        </mask>
        <rect id="path-23" x="549" y="0" width="27" height="1464"></rect>
        <mask id="mask-24" maskContentUnits="userSpaceOnUse" maskUnits="objectBoundingBox" x="0" y="0" width="27" height="1464" fill="white">
            <use xlink:href="#path-23"></use>
        </mask>
    </defs>
    <g id="Page-1" stroke="none" stroke-width="1" fill="none" fill-rule="evenodd">
        <g id="background" transform="translate(0.000000, 1.000000)">
            <g id="Page-1">
                <g>
                    <g id="Embibe-landing-3-Copy">
                        <g id="background">
                            <rect id="Rectangle-5" fill="#FFFFFF" fill-rule="nonzero" x="0" y="1" width="1464" height="706"></rect>
                            <g id="Group-25" transform="translate(0.000000, 1.000000)" stroke="#D0D0D0" stroke-width="2">
                                <use id="Rectangle-2-Copy-4" mask="url(#mask-2)" xlink:href="#path-1"></use>
                                <use id="Rectangle-2-Copy-15" mask="url(#mask-4)" xlink:href="#path-3"></use>
                                <use id="Rectangle-2-Copy-17" mask="url(#mask-6)" xlink:href="#path-5"></use>
                                <use id="Rectangle-2-Copy-16" mask="url(#mask-8)" xlink:href="#path-7"></use>
                                <use id="Rectangle-2-Copy-21" mask="url(#mask-10)" xlink:href="#path-9"></use>
                                <use id="Rectangle-2-Copy-20" mask="url(#mask-12)" xlink:href="#path-11"></use>
                                <use id="Rectangle-2-Copy-19" mask="url(#mask-14)" xlink:href="#path-13"></use>
                                <use id="Rectangle-2-Copy-18" mask="url(#mask-16)" xlink:href="#path-15"></use>
                            </g>
                            <g id="Group-25-Copy" transform="translate(732.000000, 289.000000) rotate(90.000000) translate(-732.000000, -289.000000) translate(444.000000, -443.000000)" stroke="#D0D0D0" stroke-width="2">
                                <use id="Rectangle-2-Copy-17" mask="url(#mask-18)" xlink:href="#path-17"></use>
                                <use id="Rectangle-2-Copy-16" mask="url(#mask-20)" xlink:href="#path-19"></use>
                                <use id="Rectangle-2-Copy-21" mask="url(#mask-22)" xlink:href="#path-21"></use>
                                <use id="Rectangle-2-Copy-20" mask="url(#mask-24)" xlink:href="#path-23"></use>
                            </g>
                            <g id="Group-9" transform="translate(114.000000, 0.000000)">
                                <g id="Group-5">
                                    <path d="M245.5,71.5 L174.492958,0.492958096" id="Line" stroke="#DC7AF0" stroke-width="2" stroke-linecap="square"></path>
                                    <path d="M1125.5,185.5 L1054.49296,114.492958" id="Line-Copy-5" stroke="#4990E2" stroke-width="2" stroke-linecap="square"></path>
                                    <path d="M163.5,211.5 L0.370450255,48.3704503" id="Line-Copy-3" stroke="#1CF909" stroke-width="2" stroke-linecap="square"></path>
                                    <g id="Group" transform="translate(1129.000000, 187.000000) rotate(54.000000) translate(-1129.000000, -187.000000) translate(1088.000000, 143.000000)" fill-rule="nonzero" fill="#F26F66">
                                        <path d="M41,0.176871287 C37.2061915,0.176871287 34.0509362,2.95192079 33.4516383,6.57037624 C14.5436596,10.1069307 0.233787234,26.6770693 0.233787234,46.5885941 C0.233787234,69.0765149 18.4848936,87.3055842 41,87.3055842 C63.5159787,87.3055842 81.7662128,69.0765149 81.7662128,46.5885941 C81.7662128,26.6770693 67.4563404,10.1069307 48.5474894,6.57124752 C47.9490638,2.95192079 44.7946809,0.176871287 41,0.176871287 Z M33.4839149,9.14764356 C34.1102553,12.7338614 37.2297447,15.4461782 41,15.4461782 C44.7702553,15.4461782 47.8888723,12.7347327 48.5160851,9.14764356 C66.0257021,12.6336634 79.2189787,28.0746139 79.2189787,46.5885941 C79.2189787,67.6711287 62.1088936,84.7614257 41,84.7614257 C19.8928511,84.7614257 2.78102128,67.672 2.78102128,46.5885941 C2.78102128,28.0746139 15.9742979,12.6336634 33.4839149,9.14764356 Z" id="Shape"></path>
                                        <path d="M56.2868936,46.5885941 C56.2868936,55.0217822 49.4425106,61.8570297 41,61.8570297 C32.5574894,61.8570297 25.7131064,55.0209109 25.7131064,46.5885941 C25.7131064,38.1562772 32.5574894,31.3201584 41,31.3201584 C49.4425106,31.3201584 56.2868936,38.1554059 56.2868936,46.5885941 Z" id="Shape"></path>
                                    </g>
                                </g>
                                <path d="M88.3768447,313.305424 C77.1635276,313.305424 77.2207384,331.097983 77.2207384,337.791647 L77.2207384,337.791647 C77.2779492,341.968035 77.049106,359.074065 72.0717663,359.474541 C68.8679614,359.703384 69.4400694,355.755839 66.7511618,357.071687 C64.4627297,358.215903 67.9525886,361.305286 70.5842855,361.305286 C81.8548133,361.362497 81.7976025,343.569938 81.7976025,336.876274 L81.7976025,336.876274 C81.7403917,332.699886 81.9692349,315.593856 86.9465747,315.19338 C90.1503795,314.964537 89.5782715,318.912082 92.2671792,317.596234 C94.4984004,316.394807 91.0657524,313.305424 88.3768447,313.305424 Z" id="Shape" fill="#9B9B9B" fill-rule="nonzero" transform="translate(79.497200, 337.305424) rotate(22.000000) translate(-79.497200, -337.305424) "></path>
                                <g id="6-x-4" transform="translate(1181.401826, 338.618728) rotate(15.000000) translate(-1181.401826, -338.618728) translate(1146.901826, 320.118728)" font-size="30" font-family="Karla-Bold, Karla" fill="#4990E2" font-weight="bold">
                                    <text>
                                        <tspan x="0.07" y="28.186512">6 x 4</tspan>
                                    </text>
                                </g>
                                <g id="Fn" transform="translate(188.520453, 420.469677) rotate(-22.000000) translate(-188.520453, -420.469677) translate(170.020453, 401.969677)" font-size="30" font-family="Karla-Bold, Karla" fill="#4990E2" font-weight="bold">
                                    <text>
                                        <tspan x="0.882228" y="28.432228">Fn</tspan>
                                    </text>
                                </g>
                                <g id="Group" transform="translate(1109.502840, 465.178901) rotate(153.000000) translate(-1109.502840, -465.178901) translate(1084.002840, 443.178901)" fill-rule="nonzero" fill="#9B9B9B">
                                    <polygon id="Shape" points="5.31610256 2.98917949 3.32538462 2.98917949 3.32538462 6.3145641 3.41060513e-13 6.3145641 3.41060513e-13 8.30528205 3.32538462 8.30528205 3.32538462 11.6306667 5.31610256 11.6306667 5.31610256 8.30528205 8.64148718 8.30528205 8.64148718 6.3145641 5.31610256 6.3145641"></polygon>
                                    <rect id="Rectangle-path" x="0.432102564" y="35.6947179" width="7.77728205" height="1.99071795"></rect>
                                    <path d="M29.0349231,0.265692308 L14.2131282,0.265692308 L14.2131282,14.3541538 L29.0349231,14.3541538 C31.1491795,14.3547179 33.0547179,15.2082051 34.4412821,16.593641 C35.8261538,17.9802051 36.6802051,19.8857436 36.6807692,22 L36.6807692,22 C36.6802051,24.1142564 35.8267179,26.0197949 34.4412821,27.406359 C33.0547179,28.7912308 31.1491795,29.6452821 29.0349231,29.6458462 L14.2131282,29.6458462 L14.2131282,43.7343077 L29.0349231,43.7343077 C41.0384615,43.7337436 50.7686667,34.0041026 50.7692308,22 L50.7692308,22 C50.7686667,9.99589744 41.0384615,0.26625641 29.0349231,0.265692308 Z M16.2038462,12.3634359 L16.2038462,2.25641026 L24.5824615,2.25641026 L24.5824615,12.3634359 L16.2038462,12.3634359 Z M16.2038462,41.7435897 L16.2038462,31.6365641 L24.5824615,31.6365641 L24.5824615,41.7435897 L16.2038462,41.7435897 Z M48.7785128,22 C48.7779487,27.4554359 46.5700513,32.3845641 42.9958974,35.9609744 C39.4194872,39.5351282 34.4897949,41.7430256 29.0349231,41.7435897 L26.5737436,41.7435897 L26.5737436,31.6365641 L29.0349231,31.6365641 C34.3572308,31.636 38.6709231,27.3228718 38.6714872,22 L38.6714872,22 C38.6709231,16.6771282 34.3572308,12.364 29.0349231,12.3634359 L26.5737436,12.3634359 L26.5737436,2.25641026 L29.0349231,2.25641026 C34.490359,2.25697436 39.4194872,4.46487179 42.9958974,8.03902564 C46.5700513,11.6154359 48.7779487,16.5445641 48.7785128,22 L48.7785128,22 Z" id="Shape"></path>
                                </g>
                                <g id="noun_755925_cc" transform="translate(137.000000, 519.000000)" fill-rule="nonzero" fill="#C9C9C9">
                                    <g id="Group">
                                        <path d="M65.2094505,13.1006374 L64.6966813,13.6134066 C60.7091209,17.600967 55.9810549,17.3957143 51.8694725,16.8923736 L49.1736264,16.5268352 C44.666044,15.927033 40.3136703,15.6934945 36.6314505,19.374989 C33.1515824,22.8555824 33.1450549,26.6959121 33.6687033,30.9677802 L33.6193846,30.9612527 C33.2357143,30.9061319 32.8462418,30.858989 32.4582198,30.8096703 C31.9722857,26.7212967 32.0883297,22.4283956 35.9758022,18.5401978 C39.7987253,14.7172747 44.2417582,14.7172747 48.5934066,15.216989 L48.5934066,15.2213407 C48.5934066,15.2213407 51.1492747,15.6021099 51.5568791,15.6514286 C55.9621978,16.2222198 60.2137582,16.4318242 63.8676923,12.7778901 L64.3775604,12.2651209 L63.3505714,11.2395824 L63.0952747,11.4941538 L54.8293187,3.22892308 L55.1012967,2.95694505 L54.0757582,1.93140659 L53.562989,2.44417582 C50.9447473,5.06241758 50.402967,7.94465934 50.5001538,10.8624396 L50.4943516,10.8682418 L50.5008791,10.8747692 C50.5371429,11.9452747 50.658989,13.0201319 50.7953407,14.0884615 C50.703956,14.0761319 49.7132308,13.9426813 49.5145055,13.9165714 C48.9364615,9.71650549 48.9988352,5.33657143 52.7818681,1.55498901 L53.2946374,1.04221978 L52.2690989,0.0166813187 L51.7556044,0.529450549 C47.644022,4.64030769 47.4822857,9.45540659 48.0255165,13.7345275 C43.713033,13.2609231 38.9182418,13.3675385 34.7703956,17.5139341 C30.550022,21.735033 30.5101319,26.4507692 30.9764835,30.6290769 C26.7481319,30.1743297 22.0157143,30.2686154 17.8627912,34.4215385 C13.6097802,38.6745495 13.5916484,43.383033 14.058,47.5381319 C9.82747253,47.0906374 5.09505495,47.1892747 0.943582418,51.3407473 L0.430813187,51.8535165 L1.45635165,52.8790549 L1.96912088,52.3662857 C5.96030769,48.3750989 10.6854725,48.5789011 14.7985055,49.0822418 C15.370022,49.1496923 17.4987033,49.4470549 17.4987033,49.4470549 C22.0062857,50.0454066 26.3586593,50.2796703 30.0401538,46.5981758 C33.5185714,43.1212088 33.5265495,39.2794286 33.0036264,35.0068352 C33.0036264,35.0068352 33.8268132,35.1156264 34.2148352,35.1649451 C34.7058462,39.2243077 34.8044835,43.5034286 30.8749451,47.4336923 C26.8823077,51.4263297 22.1614945,51.2218022 18.0455604,50.7177363 C17.474044,50.6502857 15.3453626,50.3536484 15.3453626,50.3536484 C10.8377802,49.7523956 6.48613187,49.5188571 2.80391209,53.2018022 L2.29186813,53.7152967 L3.31740659,54.7408352 L3.56545055,54.4927912 L11.8306813,62.758022 L11.5826374,63.0060659 L12.6081758,64.0316044 L13.1209451,63.5188352 C16.6232967,60.0164835 16.6174945,56.1826813 16.0909451,51.9202418 L16.1402637,51.9267692 C16.5239341,51.9818901 16.9163077,52.0312088 17.3065055,52.081978 C17.783011,56.1841319 17.8250769,60.485011 13.9564615,64.3529011 L13.4436923,64.8656703 L14.4692308,65.8912088 L14.982,65.3784396 C19.1835165,61.1776484 19.242989,56.4546593 18.7867912,52.2618462 C23.0173187,52.7122418 27.7497363,52.6114286 31.9012088,48.4585055 C36.1650989,44.1946154 36.1687253,39.4904835 35.6965714,35.3440879 C39.9241978,35.7988352 44.6573407,35.7030989 48.8088132,31.5516264 C53.0415165,27.3189231 53.0763297,22.6075385 52.6041758,18.4357582 C56.8390549,18.8832527 61.5750989,18.7853407 65.7222198,14.6382198 L66.234989,14.1254505 L65.2094505,13.1006374 Z M52.2118022,7.62408791 L58.7385495,14.1515604 C57.9153626,14.372044 57.0667912,14.4844615 56.1913846,14.5156484 L51.9332967,10.2568352 C51.9296703,9.35241758 52.0094505,8.47628571 52.2118022,7.62408791 Z M53.8501978,4.3016044 L62.024044,12.4754505 C61.446,12.9418022 60.8527253,13.3153187 60.2427692,13.6047033 L52.7325495,6.09303297 C53.0103297,5.4838022 53.3802198,4.8869011 53.8501978,4.3016044 Z M54.0895385,14.4641538 C53.4977143,14.4206374 52.895011,14.3560879 52.2828791,14.2821099 C52.2009231,13.6547473 52.1233187,13.038989 52.0616703,12.4362857 L54.0895385,14.4641538 Z M14.886989,55.8903956 C14.857978,56.767978 14.7448352,57.6136484 14.5192747,58.4332088 L7.90694505,51.8201538 C8.72505495,51.5989451 9.57072527,51.4843516 10.4512088,51.4538901 L14.886989,55.8903956 Z M12.5566813,51.5097363 C13.2195824,51.5590549 13.9013407,51.633033 14.6026813,51.7215165 C14.6940659,52.4264835 14.7738462,53.1133187 14.8267912,53.7798462 L12.5566813,51.5097363 Z M12.8148791,61.6911429 L4.63378022,53.510044 C5.21037363,53.0407912 5.80074725,52.6636484 6.40707692,52.3728132 L13.9593626,59.9258242 C13.6663516,60.5263516 13.287033,61.1138242 12.8148791,61.6911429 Z M46.3327253,28.2247912 L38.0994066,19.9907473 C38.6513407,19.4968352 39.2170549,19.0972088 39.7965495,18.7766374 L47.5533626,26.5341758 C47.2306154,27.1085934 46.8288132,27.6721319 46.3327253,28.2247912 Z M48.1872527,25.1177143 L41.2195385,18.1492747 C42.0173407,17.8816484 42.841978,17.7271648 43.6992527,17.6611648 L43.6702418,17.6901758 L48.6325714,22.6517802 L48.6818901,22.6024615 C48.6187912,23.4706154 48.465033,24.3068571 48.1872527,25.1177143 Z M48.4302198,17.893978 C48.554967,18.8542418 48.6565055,19.7782418 48.700022,20.6681538 L45.6712747,17.6394066 C46.5561099,17.6785714 47.475033,17.7735824 48.4302198,17.893978 Z M37.0803956,21.0235385 L45.2984835,29.2423516 C44.7327692,29.7246593 44.1525495,30.1061538 43.5578242,30.4114945 L35.9054505,22.7591209 C36.2122418,22.168022 36.5959121,21.589978 37.0803956,21.0235385 Z M35.1562418,31.1665055 C35.0503516,30.344044 34.9633187,29.5491429 34.9132747,28.7796264 L37.5344176,31.4007692 C36.7670769,31.3536264 35.9750769,31.2702198 35.1562418,31.1665055 Z M39.6014505,31.4167253 L34.8915165,26.7067912 C34.9379341,25.8466154 35.0634066,25.0161758 35.3078242,24.2125714 L42.0992967,31.004044 C41.2971429,31.2455604 40.4645275,31.3688571 39.6014505,31.4167253 Z M20.328,37.7628791 L28.5605934,45.9954725 C28.0079341,46.4886593 27.4414945,46.8868352 26.8605495,47.2066813 L19.1124396,39.4578462 C19.433011,38.8805275 19.8333626,38.3162637 20.328,37.7628791 Z M18.4821758,40.8786593 L25.4346593,47.8318681 C24.6426593,48.0965934 23.8230989,48.2481758 22.9723516,48.3141758 L22.9897582,48.2967692 L18.0274286,43.3344396 L17.9962418,43.3656264 C18.0600659,42.5076264 18.2116484,41.6800879 18.4821758,40.8786593 Z M18.2428352,48.0806374 C18.120989,47.1312527 18.0209011,46.2166813 17.9781099,45.3361978 L20.9771209,48.3352088 C20.0995385,48.2953187 19.1885934,48.2003077 18.2428352,48.0806374 Z M29.5803297,44.9641319 L21.3593407,36.7431429 C21.9243297,36.2601099 22.5038242,35.8778901 23.0978242,35.5710989 L30.7581758,43.2307253 C30.4499341,43.8210989 30.0662637,44.3991429 29.5803297,44.9641319 Z M31.5168132,34.8073846 C31.6241538,35.6392747 31.7111868,36.4428791 31.7605055,37.2210989 L29.1110769,34.5709451 C29.8871209,34.6180879 30.6878242,34.7029451 31.5168132,34.8073846 Z M27.0476703,34.5586154 L31.7786374,39.2903077 C31.730044,40.149033 31.6045714,40.978022 31.3587033,41.7801758 L24.5534505,34.9756484 C25.3548791,34.7334066 26.186044,34.6079341 27.0476703,34.5586154 Z M47.7832747,30.5268132 C43.7913626,34.5194505 39.0669231,34.3091209 34.9538901,33.7985275 C34.3823736,33.7310769 32.2602198,33.4402418 32.2602198,33.4402418 C27.7519121,32.8418901 23.4002637,32.6076264 19.7245714,36.2825934 C16.2432527,39.7631868 16.2323736,43.6064176 16.7552967,47.8804615 L16.705978,47.8739341 C16.3223077,47.8188132 15.9299341,47.7694945 15.5397363,47.7187253 C15.055978,43.6513846 14.9703956,39.3671868 18.8897802,35.4478022 C22.8831429,31.4544396 27.6054066,31.6633187 31.7191648,32.1753626 C32.289956,32.2428132 34.4135604,32.5336484 34.4135604,32.5336484 C38.9218681,33.1349011 43.2735165,33.366989 46.9484835,29.692022 C50.4486593,26.1918462 50.4443077,22.3573187 49.9177582,18.0934286 L49.9678022,18.1006813 C50.350022,18.1550769 50.7365934,18.2058462 51.1231648,18.2566154 C51.6141758,22.3384615 51.6830769,26.6277363 47.7832747,30.5268132 Z" id="Shape"></path>
                                    </g>
                                </g>
                            </g>
                            <rect id="Rectangle-7-Copy" fill="#F1F1F1" fill-rule="nonzero" x="0" y="561" width="1464" height="270"></rect>
                            <rect id="Rectangle-7" fill="#4A90E2" fill-rule="nonzero" x="0" y="561" width="1464" height="16"></rect>
                        </g>
                    </g>
                </g>
            </g>
        </g>
    </g>
</svg>