<?xml version="1.0" encoding="UTF-8" standalone="no"?>
<svg width="109px" height="24px" viewBox="0 0 109 24" version="1.1" xmlns="http://www.w3.org/2000/svg" xmlns:xlink="http://www.w3.org/1999/xlink">
    <!-- Generator: Sketch 42 (36781) - http://www.bohemiancoding.com/sketch -->
    <title>boardstuff</title>
    <desc>Created with Sketch.</desc>
    <defs></defs>
    <g id="Page-1" stroke="none" stroke-width="1" fill="none" fill-rule="evenodd">
        <g id="Embibe-landing-3-Copy" transform="translate(-934.000000, -744.000000)">
            <g id="Group-16" transform="translate(385.000000, 325.000000)">
                <g id="boardstuff" transform="translate(549.000000, 419.000000)">
                    <g id="Duster" transform="translate(39.000000, 0.000000)">
                        <path d="M1.60460902,1.99189604 C1.52669502,0.891802234 2.35150579,0 3.45745529,0 L36.6734625,0 L38,18 L0,18 C0,18 0.713542228,12.9270859 1.17308952,8.80635423 C1.22916091,8.30356565 2.10918145,7.81128863 2.15593261,7.34779584 C2.20268376,6.88430305 1.42729264,6.33060875 1.46353324,5.88488543 C1.79307305,1.83187425 1.60460902,1.99189604 1.60460902,1.99189604 Z" id="Rectangle-13" fill="#718B53"></path>
                        <path d="M33.604609,1.99189604 C33.526695,0.891802234 34.3515058,0 35.4574553,0 L68.6734625,0 L70,18 L32,18 C32,18 32.7135422,12.9270859 33.1730895,8.80635423 C33.2291609,8.30356565 34.1091814,7.81128863 34.1559326,7.34779584 C34.2026838,6.88430305 33.4272926,6.33060875 33.4635332,5.88488543 C33.7930731,1.83187425 33.604609,1.99189604 33.604609,1.99189604 Z" id="Rectangle-13-Copy-2" fill="#718B53" transform="translate(51.000000, 9.000000) scale(-1, 1) translate(-51.000000, -9.000000) "></path>
                        <rect id="Rectangle-13-Copy" fill="#DFDFDF" x="0" y="18" width="70" height="5"></rect>
                    </g>
                    <path d="M23.1243464,23.2174114 C25.0040625,23.1182408 26.5278735,21.510392 26.5278735,19.622111 L26.5278735,20.4004738 C26.5278735,18.5140148 24.9988598,16.9851537 23.1165294,17.0026672 C23.1165294,17.0026672 11.7863342,16.8747211 5.43381783,18.3911434 C-0.91869858,19.9075656 0.0533767932,20.8975731 0.0533767932,21.4601262 C0.0533767932,22.2337997 2.0510753,23.5314354 5.43381783,23.7758307 C8.81656036,24.0202261 23.1243464,23.2174114 23.1243464,23.2174114 Z" id="Oval-3" fill="#FFFFFF"></path>
                </g>
            </g>
        </g>
    </g>
</svg>